# xmcd
#
# Track frame offsets: 
#        150
#        18251
#        34175
#        47275
#        64704
#        80255
#        94035
#        107466
#        123516
#        146466
#        159441
#        173673
#        187550
#        206662
#
# Disc length: 2930 seconds
#
# Revision: 0
# Processed by: cddbd v1.5.2PL0 Copyright (c) Steve Scherf et al.
# Submitted via: ExactAudioCopyFreeDBPlugin 1.0
#
DISCID=a00b700e
DTITLE=The Howie Bros. - The Australian Collection 40 Australian Songs
DTITLE=[CD1)
DYEAR=2013
DGENRE=Country
TTITLE0=We've Done Us Proud
TTITLE1=I Am Australian
TTITLE2=Along The Road To Gundagai
TTITLE3=I Still Call Australia Home
TTITLE4=Botany Bay
TTITLE5=By A Fire Of Gidgee Cole
TTITLE6=The Wild Colonial Boy [Medley]
TTITLE7=John Durack
TTITLE8=Simpson And His Donkey
TTITLE9=Jackson's Track
TTITLE10=Redback On The Toilet Seat [Medley]
TTITLE11=Home Among The Gumtrees
TTITLE12=The Bush Girl
TTITLE13=G'day G'day
EXTD=
EXTT0=
EXTT1=
EXTT2=
EXTT3=
EXTT4=
EXTT5=
EXTT6=
EXTT7=
EXTT8=
EXTT9=
EXTT10=
EXTT11=
EXTT12=
EXTT13=
PLAYORDER=
